<?xml version="1.0" encoding="UTF-8" standalone="no"?>
<!-- Created with Inkscape (http://www.inkscape.org/) -->

<svg
   width="210mm"
   height="297mm"
   viewBox="0 0 210 297"
   version="1.1"
   id="svg5"
   xml:space="preserve"
   sodipodi:docname="tractopelle3.svg"
   inkscape:version="1.2.2 (732a01da63, 2022-12-09)"
   xmlns:inkscape="http://www.inkscape.org/namespaces/inkscape"
   xmlns:sodipodi="http://sodipodi.sourceforge.net/DTD/sodipodi-0.dtd"
   xmlns="http://www.w3.org/2000/svg"
   xmlns:svg="http://www.w3.org/2000/svg"><sodipodi:namedview
     id="namedview7"
     pagecolor="#ffffff"
     bordercolor="#000000"
     borderopacity="0.25"
     inkscape:showpageshadow="2"
     inkscape:pageopacity="0.0"
     inkscape:pagecheckerboard="0"
     inkscape:deskcolor="#d1d1d1"
     inkscape:document-units="mm"
     showgrid="false"
     inkscape:zoom="1.6819304"
     inkscape:cx="356.43567"
     inkscape:cy="522.61377"
     inkscape:window-width="2560"
     inkscape:window-height="1494"
     inkscape:window-x="-11"
     inkscape:window-y="-11"
     inkscape:window-maximized="1"
     inkscape:current-layer="layer1" /><defs
     id="defs2"><clipPath
       clipPathUnits="userSpaceOnUse"
       id="clipPath2462"><g
         inkscape:label="Clip"
         id="use2464" /></clipPath></defs><g
     inkscape:label="Calque 1"
     inkscape:groupmode="layer"
     id="layer1"><path
       style="fill:#b7c1d5;stroke-width:0.0846667"
       d="m 19.704462,142.07592 0.02167,-13.74232 h -0.508507 -0.508506 l 0.08494,-0.10135 0.966507,0.0604 c 0.531578,0.0332 1.388595,0.0328 1.904482,-9.3e-4 l 0.937975,-0.0613 0.02213,-9.00777 0.02154,0.0304 -5.92e-4,9.03817 -0.486834,0.0254 -0.486833,0.0254 v 13.03944 c 0,10.40759 0.02136,13.02714 0.105833,12.97854 0.280738,-0.16156 -0.07373,0.0925 -1.037166,0.74328 l -1.058334,0.71492 0.02167,-13.74231 z"
       transform="translate(1.6392376,-4.4381989)"
       id="path3235" /><path
       style="fill:#b7c1d5;stroke-width:0.0846667"
       d="m 44.516116,71.287604 -10.726672,-3.187335 -0.02599,-0.944407 -0.026,-0.944407 0.211667,0.07185 c 0.622151,0.211184 21.79979,6.4243 21.897466,6.4243 0.06373,0 0.11431,0.0095 0.112408,0.02117 -0.0019,0.01164 -0.107292,0.401764 -0.2342,0.866937 -0.152623,0.559436 -0.273273,0.851435 -0.356373,0.862502 -0.0691,0.0092 -4.952637,-1.417571 -10.852307,-3.170605 z"
       transform="translate(1.6392376,-4.4381989)"
       id="path3237" /><g
       id="g3231"><path
         style="fill:#fcaf00;stroke-width:0.0846667"
         d="m 27.260455,150.60642 c 0,-0.0474 -1.031394,-9.10729 -2.291987,-20.13303 -1.260594,-11.02573 -2.328808,-20.42599 -2.373811,-20.88947 -0.045,-0.46347 -0.918385,-8.16845 -1.94085,-17.122158 l -1.859029,-16.279476 2.169921,-3.959841 c 1.193456,-2.177913 2.193358,-3.986437 2.222005,-4.018942 0.05063,-0.05745 10.201894,-1.930566 10.462616,-1.930566 0.117335,0 0.1301,4.02919 0.126811,40.026163 l -0.0037,40.02617 -3.25601,2.18369 c -1.790805,1.20103 -3.256009,2.14489 -3.256009,2.09746 z"
         id="path312"
         transform="translate(1.6392376,-4.4381989)" /><path
         style="fill:#000000;stroke-width:0.0846667"
         d="m 18.805319,102.65844 c 0.0063,-14.074778 0.02557,-25.514303 0.04273,-25.42117 0.01716,0.09313 0.869219,7.518688 1.893469,16.501233 l 1.862274,16.331897 v 9.08927 9.08927 h -1.905 -1.905 z"
         transform="translate(1.6392376,-4.4381989)"
         id="path2486" /><path
         style="fill:#141a24;stroke-width:0.0846667"
         d="m 29.368683,146.11437 c -1.112383,-0.58794 -1.340613,-2.04179 -0.458934,-2.92348 0.77835,-0.77834 1.96436,-0.72066 2.693346,0.13099 0.350498,0.40948 0.436482,0.72623 0.380474,1.40162 -0.04842,0.58387 -0.382277,1.08634 -0.905263,1.36244 -0.478081,0.2524 -1.261238,0.26542 -1.709623,0.0284 z"
         transform="translate(1.6392376,-4.4381989)"
         id="path2624" /><path
         style="fill:#141a24;stroke-width:0.0846667"
         d="m 25.842345,85.361449 c -0.690349,-0.185895 -1.116948,-0.441053 -1.676403,-1.00269 -0.609325,-0.6117 -0.927307,-1.22359 -1.068108,-2.055349 -0.125313,-0.740261 -0.0096,-1.524261 0.329088,-2.229806 0.261772,-0.545306 1.101551,-1.422616 1.6101,-1.682059 1.519016,-0.774944 3.287643,-0.478586 4.456397,0.74673 0.724102,0.759145 1.067026,1.590349 1.067026,2.586329 0,0.99598 -0.342924,1.827184 -1.067026,2.586329 -0.958057,1.004422 -2.342714,1.402826 -3.651074,1.050516 z"
         transform="translate(1.6392376,-4.4381989)"
         id="path2746" /></g><g
       id="g3227"><path
         style="fill:#ea7305;stroke-width:0.0846667"
         d="M 101.60669,110.19013 C 99.822523,104.08026 98.356342,99.074054 98.348511,99.065233 98.340679,99.056413 84.009537,96.227141 66.501529,92.777961 48.993522,89.328782 34.468764,86.466272 34.224289,86.416829 l -0.4445,-0.0899 v -4.488773 -4.488773 l 0.3175,0.04955 c 0.174625,0.02725 10.9855,1.403212 24.024166,3.057694 13.038667,1.654481 25.306867,3.211764 27.262667,3.460627 1.9558,0.248863 7.420796,0.943175 12.144443,1.542915 l 8.588445,1.090436 3.26489,6.583726 3.26489,6.583725 -1.4028,-8.89e-4 c -1.99389,-0.0013 -2.70822,0.240273 -3.7288,1.260853 -0.74721,0.74721 -1.25193,1.76783 -1.38578,2.80225 -0.0271,0.20955 -0.3157,4.22676 -0.6413,8.92712 -0.3256,4.70036 -0.60224,8.55636 -0.61475,8.56886 -0.0125,0.0125 -1.48251,-4.97624 -3.26667,-11.08611 z"
         id="path3209"
         transform="translate(1.6392376,-4.4381989)" /><path
         style="fill:#141a24;stroke-width:0.0846667"
         d="m 101.11764,95.450947 c -0.77771,-0.254326 -1.334959,-0.757763 -1.683828,-1.521233 -0.203369,-0.445038 -0.22247,-0.569041 -0.189086,-1.227667 0.04383,-0.864899 0.224646,-1.282226 0.796194,-1.837711 0.49644,-0.48248 1.12148,-0.715269 1.92028,-0.715182 1.06725,8.5e-5 2.00588,0.609716 2.46087,1.598237 0.26828,0.582887 0.25377,1.675375 -0.0299,2.25403 -0.26388,0.538211 -0.77798,1.053693 -1.3056,1.309107 -0.50531,0.244614 -1.44527,0.311652 -1.96888,0.140419 z"
         transform="translate(1.6392376,-4.4381989)"
         id="path2740" /></g><path
       style="fill:#000000;stroke-width:0.0846667"
       d="M 93.636929,84.937577 82.162409,83.469323 68.752521,79.528331 C 61.377083,77.360785 55.324285,75.568988 55.301856,75.54656 c -0.02243,-0.02243 0.135205,-0.698944 0.350294,-1.503368 0.619513,-2.316941 0.543974,-2.121049 0.793738,-2.058361 0.341287,0.08566 48.555592,14.265597 48.792572,14.350009 0.17001,0.06056 0.17834,0.07496 0.0423,0.07319 -0.0931,-0.0012 -5.332867,-0.662917 -11.643861,-1.470456 z"
       transform="translate(1.6392376,-4.4381989)"
       id="path2488" /><path
       style="fill:#000000;stroke-width:0.0846667"
       d="m 20.338955,174.33268 -6.117166,-3.17501 0.0028,-5.8122 0.0028,-5.8122 1.58467,-1.06021 c 1.889145,-1.26392 10.096287,-6.79332 14.665675,-9.88071 1.792816,-1.21135 3.269642,-2.17754 3.281835,-2.1471 0.01219,0.0305 1.119418,5.16809 2.460503,11.41697 1.341084,6.24889 2.455059,11.3754 2.475499,11.39225 0.02044,0.0169 3.142313,1.8127 6.937496,3.99076 3.795183,2.17805 7.014633,4.03137 7.154333,4.11848 0.248765,0.15511 -0.02,0.15823 -13.038666,0.15119 l -13.292667,-0.007 -6.117167,-3.17502 z"
       transform="translate(1.6392376,-4.4381989)"
       id="path304" /><g
       id="g3428"><path
         style="fill:#ea7305;stroke-width:0.0846667"
         d="m 182.79312,149.72725 c 0,-0.25825 -2.01179,-28.9046 -2.07624,-29.56398 l -0.0496,-0.508 1.85272,0.0423 1.85273,0.0423 0.72736,0.36053 c 0.56794,0.28152 0.83829,0.4816 1.23345,0.91285 0.57062,0.62274 1.04098,1.50435 1.2404,2.32495 0.0735,0.30268 0.6471,4.37938 1.27454,9.05933 0.62744,4.67995 1.23351,9.13765 1.34683,9.906 0.11332,0.76835 0.27133,1.95893 0.35113,2.64572 0.13567,1.16749 0.13596,1.28579 0.004,1.81859 -0.26348,1.06769 -1.06643,2.0533 -2.1376,2.62389 -0.88966,0.4739 -1.27769,0.53181 -3.56361,0.53181 h -2.05655 v -0.19636 z"
         id="path2863"
         transform="translate(1.6392376,-4.4381989)" /><path
         style="fill:#ea7305;stroke-width:0.0846667"
         d="m 145.28579,95.606089 c 0,-1.185364 0.008,-1.239093 0.20221,-1.433722 0.27759,-0.277587 0.58241,-0.317798 2.15703,-0.284541 1.3593,0.02871 1.36312,0.02934 1.59716,0.263296 0.23168,0.231601 0.23494,0.249765 0.26201,1.4605 l 0.0274,1.225982 h -2.12291 -2.12291 z"
         id="path3215"
         transform="translate(1.6392376,-4.4381989)" /><path
         style="fill:#ea7305;stroke-width:0.0846667"
         d="m 103.24561,145.20344 c 0.0226,-0.17463 0.081,-0.9652 0.12965,-1.75684 0.0487,-0.79163 0.11054,-1.6584 0.13749,-1.92616 l 0.049,-0.48684 h 1.21935 c 1.19418,0 1.21936,-0.004 1.21936,-0.18344 0,-0.10089 0.0152,-0.16757 0.0339,-0.14817 0.0186,0.0194 -0.0375,1.04493 -0.12482,2.27895 -0.0873,1.23401 -0.1597,2.31034 -0.1609,2.39183 -0.002,0.13444 -0.11997,0.14817 -1.27317,0.14817 h -1.271 z"
         id="path2865"
         transform="translate(1.6392376,-4.4381989)" /><path
         style="fill:#ea7305;stroke-width:0.0846667"
         d="m 155.58149,145.03414 c -0.0276,-0.26775 -0.0892,-1.11548 -0.13675,-1.88383 -0.0476,-0.76835 -0.10723,-1.55892 -0.13258,-1.75683 l -0.0461,-0.35984 h 13.08619 c 12.40634,0 13.08622,0.008 13.08685,0.14817 0,0.0815 0.057,0.91017 0.12581,1.8415 0.0688,0.93133 0.12567,1.87431 0.12632,2.0955 l 0.001,0.40217 h -13.03035 -13.03036 l -0.0503,-0.48684 z"
         id="path2871"
         transform="translate(1.6392376,-4.4381989)" /><path
         style="display:inline;fill:#141a24;stroke-width:0.0846667"
         d="m 127.97142,150.00039 c -21.4365,-0.0516 -21.11787,-0.0461 -22.00017,-0.38161 -1.31564,-0.50032 -2.46462,-1.87546 -2.68131,-3.20909 -0.15792,-0.97194 -0.26847,-0.889 1.18486,-0.889 1.24742,0 1.26903,-0.003 1.30722,-0.1905 0.0213,-0.10478 0.15663,-2.0193 0.30062,-4.2545 0.83325,-12.93499 1.75678,-26.25768 2.37447,-34.25383 0.18551,-2.40157 0.33731,-4.43039 0.33731,-4.5085 0,-0.13253 1.4602,-0.14201 21.88633,-0.14201 h 21.88633 l 8.5e-4,0.23284 c 0,0.12806 0.28912,4.23333 0.64182,9.12283 0.35271,4.8895 0.64042,8.94715 0.63936,9.017 -0.004,0.28737 1.69616,24.77347 1.7272,24.87083 0.0268,0.0841 2.72637,0.10584 13.12463,0.10584 h 13.09088 l -0.0529,-0.61384 c -0.10589,-1.22623 -1.73989,-24.62918 -1.73989,-24.9153 0,-0.28679 0.009,-0.2942 0.33867,-0.2942 0.18627,0 0.33867,0.0311 0.33867,0.0692 0,0.038 0.47625,6.81921 1.05833,15.06927 0.58208,8.25005 1.05833,15.01977 1.05833,15.04383 0,0.024 -7.65492,0.0437 -17.01095,0.0437 -9.35601,0 -17.02363,0.0286 -17.03916,0.0635 -0.0155,0.0349 -9.36272,0.041 -20.77155,0.0135 z"
         transform="translate(1.6392376,-4.4381989)"
         id="path2608" /><path
         style="fill:#fcaf00;stroke-width:0.0846667"
         d="m 154.60883,130.93214 c -0.38809,-5.55581 -0.6919,-10.17071 -0.67512,-10.25534 0.0225,-0.11359 0.33742,-0.26191 1.20285,-0.56654 l 1.17236,-0.41266 h 11.8028 c 10.49964,0 11.80282,0.0142 11.80282,0.12859 0,0.11923 1.40252,20.18403 1.46019,20.88991 l 0.0259,0.3175 h -13.04312 -13.04312 z"
         id="path2514"
         transform="translate(1.6392376,-4.4381989)" /><path
         style="fill:#2b354b;stroke-width:0.0846667"
         d="m 89.462354,177.39257 c -1.70613,-0.26621 -3.28476,-0.87997 -4.674173,-1.81728 -4.333521,-2.92345 -6.152413,-8.23274 -4.514138,-13.17664 0.600255,-1.81141 1.518106,-3.24975 2.970072,-4.65433 1.58364,-1.53195 3.447153,-2.51379 5.7322,-3.02015 l 0.810474,-0.17959 28.867151,-0.0258 c 22.78371,-0.0204 28.88115,-0.0478 28.93354,-0.13032 0.0518,-0.0816 0.0667,-0.0818 0.0677,-9.3e-4 0.001,0.0812 3.5461,0.10971 16.40546,0.132 18.28182,0.0317 16.83047,-0.0163 18.7325,0.6194 1.41476,0.47285 2.64379,1.17537 3.83626,2.19283 1.98799,1.69625 3.37169,4.13272 3.84027,6.76204 0.20306,1.13945 0.18174,2.99471 -0.047,4.09144 -0.5111,2.45034 -1.62416,4.46142 -3.41463,6.16957 -1.58888,1.51583 -3.24929,2.38804 -5.65422,2.97016 -0.60901,0.14743 -2.48761,0.15434 -45.88933,0.169 -38.083427,0.0129 -45.372829,-0.003 -46.002106,-0.10138 z m 91.122566,-1.81832 c 3.59125,-0.36853 6.64983,-2.86173 7.73638,-6.30632 0.34103,-1.08115 0.42331,-1.89231 0.37569,-3.70393 -0.0479,-1.82181 -0.20568,-2.6005 -0.77793,-3.83907 -1.26722,-2.74273 -3.97586,-4.7934 -6.8616,-5.19482 -0.49231,-0.0685 -13.14402,-0.0875 -46.31267,-0.0695 l -45.635335,0.0247 -0.719666,0.19875 c -1.530552,0.42268 -3.037993,1.28842 -4.134074,2.37424 -2.124557,2.10466 -3.011694,4.93875 -2.639938,8.43368 0.116549,1.09569 0.37281,1.99436 0.848429,2.97535 1.380883,2.84815 4.090649,4.77785 7.164739,5.1022 1.01837,0.10745 89.909935,0.1121 90.955975,0.005 z"
         id="path308"
         sodipodi:nodetypes="sssssccsssssssssssscssssccssssscc"
         transform="translate(1.6392376,-4.4381989)" /><path
         style="fill:#fcaf00;stroke-width:0.0846667"
         d="m 103.57516,140.4621 c 0.0285,-0.31432 0.0768,-0.99701 0.10722,-1.51709 l 0.0554,-0.94558 1.22895,-0.43146 c 0.67592,-0.2373 1.24764,-0.41277 1.27049,-0.38992 0.0449,0.0449 -0.12671,3.01573 -0.20435,3.53805 l -0.0472,0.3175 h -1.23116 -1.23117 z"
         id="path2506"
         transform="translate(1.6392376,-4.4381989)" /><path
         style="fill:#000000;stroke-width:0.0846667"
         d="m 130.99802,115.6971 0.0214,-12.72116 10.38606,-0.0215 10.38606,-0.0215 0.0521,0.5295 c 0.0865,0.87867 1.22857,17.28222 1.20485,17.30594 -0.0374,0.0374 -21.93584,7.64989 -22.00599,7.64989 -0.0363,0 -0.0564,-5.72452 -0.0446,-12.72117 z"
         transform="translate(1.6392376,-4.4381989)"
         id="path2482" /><path
         style="fill:#000000;stroke-width:0.0846667"
         d="m 107.18559,136.49183 c 0,-0.36021 2.27888,-32.77934 2.33395,-33.19839 l 0.0473,-0.35984 h 10.32415 10.32414 v 12.89762 12.8976 l -11.40883,3.96587 c -6.27486,2.18123 -11.45646,3.98233 -11.51467,4.00245 -0.0685,0.0237 -0.1059,-0.0488 -0.10603,-0.20531 z"
         transform="translate(1.6392376,-4.4381989)"
         id="path2478" /><path
         style="fill:#000000;stroke-width:0.0846667"
         d="m 103.79912,137.75176 c 0,-0.082 0.18978,-2.87287 0.42174,-6.20184 0.23196,-3.32896 0.76548,-10.99457 1.18562,-17.03469 0.71654,-10.3013 0.77693,-11.02334 0.97433,-11.64823 0.41018,-1.29843 1.44425,-2.41271 2.6939,-2.902844 l 0.52408,-0.205552 20.701,-0.02504 c 15.13739,-0.01831 20.83753,6.78e-4 21.209,0.07071 1.6821,0.317056 3.08132,1.736986 3.47224,3.523626 0.0733,0.33496 0.33988,3.68673 0.63194,7.94537 0.27784,4.0513 0.52782,7.59896 0.55551,7.8837 l 0.0503,0.51768 -1.15075,0.40435 c -0.63291,0.22239 -1.16928,0.38582 -1.19192,0.36318 -0.0385,-0.0385 -1.30727,-17.52949 -1.30847,-18.03774 l -5.5e-4,-0.23284 h -21.88633 c -20.42613,0 -21.88633,0.009 -21.88633,0.14201 0,0.0781 -0.1518,2.10693 -0.33731,4.5085 -0.43634,5.64854 -0.97174,13.15343 -1.61297,22.60941 -0.28251,4.1662 -0.52287,7.58413 -0.53413,7.59538 -0.0257,0.0257 -2.42928,0.87404 -2.47637,0.87404 -0.019,0 -0.0346,-0.0671 -0.0346,-0.14918 z"
         transform="translate(1.6392376,-4.4381989)"
         id="path2476" /><path
         style="fill:#000000;stroke-width:0.0846667"
         d="m 112.96155,152.44244 c -0.28951,-1.12924 -0.5499,-2.13889 -0.57862,-2.24367 l -0.0522,-0.1905 h 18.17088 c 13.79814,0 18.17088,0.0238 18.17088,0.0989 0,0.0799 -0.40801,1.70099 -1.0246,4.07096 l -0.0826,0.3175 H 130.5266 113.48794 Z"
         transform="translate(1.6392376,-4.4381989)"
         id="path2474" /><g
         id="g2814"><g
           id="g2772"><path
             style="fill:#141a24;stroke-width:0.0846667"
             d="m 177.11999,127.63525 c 0,-0.15134 -0.057,-1.03716 -0.12581,-1.9685 -0.0688,-0.93133 -0.12567,-1.76 -0.12632,-1.8415 -9.3e-4,-0.11835 0.0721,-0.14816 0.36329,-0.14816 h 0.36451 l 0.10562,1.67216 c 0.0581,0.9197 0.12791,1.8722 0.15515,2.11667 l 0.0495,0.4445 h -0.39266 c -0.38641,0 -0.39266,-0.004 -0.39332,-0.27517 z"
             transform="translate(1.6392376,-4.4381989)"
             id="path2668" /><path
             style="fill:#141a24;stroke-width:0.0846667"
             d="m 173.81745,127.84692 c -8.4e-4,-0.0349 -0.0575,-0.8255 -0.12632,-1.75683 -0.0688,-0.93134 -0.12543,-1.85526 -0.12581,-2.05317 l -8.4e-4,-0.35983 h 0.33035 0.33035 l 0.0498,0.48683 c 0.0274,0.26776 0.0889,1.09643 0.13669,1.8415 0.0478,0.74507 0.10296,1.47849 0.12256,1.62983 0.0355,0.27446 0.0346,0.27517 -0.34006,0.27517 -0.20662,0 -0.37621,-0.0286 -0.37687,-0.0635 z"
             transform="translate(1.6392376,-4.4381989)"
             id="path2666" /><path
             style="fill:#141a24;stroke-width:0.0846667"
             d="m 170.48061,127.71992 c -0.0216,-0.10477 -0.0807,-0.8763 -0.13133,-1.7145 -0.0506,-0.8382 -0.11346,-1.70497 -0.13963,-1.92617 l -0.0476,-0.40216 h 0.38895 c 0.38186,0 0.38898,0.005 0.39135,0.27516 0.001,0.15135 0.0574,0.98002 0.12459,1.8415 0.1774,2.27434 0.19305,2.11667 -0.21005,2.11667 -0.28146,0 -0.34354,-0.0314 -0.37633,-0.1905 z"
             transform="translate(1.6392376,-4.4381989)"
             id="path2664" /><path
             style="fill:#141a24;stroke-width:0.0846667"
             d="m 167.12758,127.63522 c -0.001,-0.15134 -0.0574,-0.98001 -0.12459,-1.8415 -0.1774,-2.27433 -0.19305,-2.11666 0.21005,-2.11666 0.41119,0 0.38551,-0.0943 0.50716,1.86266 0.0507,0.81492 0.11443,1.6817 0.14171,1.92617 l 0.0496,0.4445 h -0.39076 c -0.38391,0 -0.39079,-0.005 -0.39316,-0.27517 z"
             transform="translate(1.6392376,-4.4381989)"
             id="path2662" /><path
             style="fill:#141a24;stroke-width:0.0846667"
             d="m 163.79484,127.42356 c -0.0274,-0.26776 -0.0889,-1.09644 -0.13669,-1.8415 -0.0478,-0.74507 -0.10296,-1.47849 -0.12256,-1.62984 -0.0355,-0.27445 -0.0346,-0.27516 0.34006,-0.27516 0.2428,0 0.37653,0.0374 0.37809,0.10583 0.001,0.0582 0.0574,0.81068 0.12458,1.67217 0.0672,0.86148 0.12326,1.76636 0.12459,2.01083 l 0.002,0.4445 h -0.33035 -0.33036 l -0.0498,-0.48683 z"
             transform="translate(1.6392376,-4.4381989)"
             id="path2660" /><path
             style="fill:#141a24;stroke-width:0.0846667"
             d="m 160.3687,126.23822 c -0.0581,-0.91969 -0.12791,-1.87219 -0.15516,-2.11666 l -0.0495,-0.4445 h 0.39266 c 0.38642,0 0.39267,0.004 0.39333,0.27516 0,0.15135 0.057,1.03717 0.12581,1.9685 0.0688,0.93134 0.12567,1.76001 0.12632,1.8415 9.3e-4,0.11836 -0.0721,0.14817 -0.3633,0.14817 h -0.3645 z"
             transform="translate(1.6392376,-4.4381989)"
             id="path2658" /><path
             style="fill:#141a24;stroke-width:0.0846667"
             d="m 157.13865,127.76222 c 0,-0.0815 -0.057,-0.91016 -0.1258,-1.8415 -0.17858,-2.41671 -0.19458,-2.24366 0.2073,-2.24366 0.4044,0 0.38066,-0.0963 0.51139,2.07433 0.0505,0.8382 0.11268,1.66688 0.13823,1.8415 l 0.0464,0.3175 h -0.38845 c -0.31324,0 -0.38856,-0.0287 -0.38911,-0.14817 z"
             transform="translate(1.6392376,-4.4381989)"
             id="path2656" /></g><g
           id="g2763"><path
             style="fill:#141a24;stroke-width:0.0846667"
             d="m 177.70784,135.72084 c -0.003,-0.0815 -0.0705,-1.03399 -0.15012,-2.11667 l -0.14484,-1.9685 h 0.36179 c 0.22993,0 0.36387,0.0386 0.3675,0.10584 0.003,0.0582 0.0704,1.01071 0.14946,2.11666 l 0.14376,2.01084 h -0.36114 c -0.28547,0 -0.36224,-0.031 -0.36641,-0.14817 z"
             transform="translate(1.6392376,-4.4381989)"
             id="path2640" /><path
             style="fill:#141a24;stroke-width:0.0846667"
             d="m 174.37305,135.76314 c -0.018,-0.0582 -0.0747,-0.81068 -0.12607,-1.67216 -0.0513,-0.86149 -0.11598,-1.76636 -0.14367,-2.01084 l -0.0504,-0.4445 h 0.37715 0.37715 l 0.10081,1.4605 c 0.0555,0.80328 0.1242,1.75578 0.15278,2.11667 l 0.052,0.65617 h -0.3535 c -0.20889,0 -0.3669,-0.0433 -0.38626,-0.10584 z"
             transform="translate(1.6392376,-4.4381989)"
             id="path2638" /><path
             style="fill:#141a24;stroke-width:0.0846667"
             d="m 171.02325,135.67844 c -8.4e-4,-0.10478 -0.0575,-0.9525 -0.12632,-1.88384 -0.1737,-2.35064 -0.1922,-2.159 0.20836,-2.159 0.40307,0 0.381,-0.086 0.5107,1.98967 0.0495,0.79163 0.11163,1.62031 0.13815,1.8415 l 0.0482,0.40217 h -0.38895 c -0.34655,0 -0.38907,-0.0208 -0.39015,-0.1905 z"
             transform="translate(1.6392376,-4.4381989)"
             id="path2636" /><path
             style="fill:#141a24;stroke-width:0.0846667"
             d="m 167.69014,135.46677 c -0.0265,-0.22119 -0.0882,-1.04987 -0.13703,-1.8415 -0.0489,-0.79163 -0.10453,-1.56316 -0.12375,-1.7145 -0.0348,-0.27434 -0.0338,-0.27517 0.34075,-0.27517 0.30043,0 0.37616,0.0297 0.37809,0.14817 0.001,0.0815 0.0574,0.85302 0.12459,1.7145 0.0672,0.86148 0.12326,1.74731 0.12459,1.9685 l 0.002,0.40217 h -0.33073 -0.33071 l -0.0482,-0.40217 z"
             transform="translate(1.6392376,-4.4381989)"
             id="path2634" /><path
             style="fill:#141a24;stroke-width:0.0846667"
             d="m 164.26403,134.28144 c -0.0568,-0.87313 -0.12631,-1.82563 -0.15445,-2.11667 l -0.0512,-0.52917 h 0.37811 0.37811 l 0.10332,1.54517 c 0.0568,0.84984 0.12602,1.80234 0.15375,2.11667 l 0.0504,0.5715 h -0.3774 -0.3774 z"
             transform="translate(1.6392376,-4.4381989)"
             id="path2632" /><path
             style="fill:#141a24;stroke-width:0.0846667"
             d="m 161.03138,135.67844 c -0.001,-0.10478 -0.0574,-0.89535 -0.12459,-1.75684 -0.0672,-0.86148 -0.12326,-1.72825 -0.12459,-1.92616 l -0.002,-0.35984 h 0.33348 c 0.32865,0 0.33414,0.005 0.37961,0.35984 0.0254,0.19791 0.0858,1.00753 0.13437,1.79916 0.0485,0.79164 0.10675,1.58221 0.12939,1.75684 l 0.0411,0.3175 h -0.382 c -0.33899,0 -0.38227,-0.0215 -0.38441,-0.1905 z"
             transform="translate(1.6392376,-4.4381989)"
             id="path2630" /><path
             style="fill:#141a24;stroke-width:0.0846667"
             d="m 157.69635,135.5091 c -0.0252,-0.1979 -0.0855,-0.98848 -0.13389,-1.75683 -0.0484,-0.76835 -0.10869,-1.55892 -0.1339,-1.75683 l -0.0458,-0.35984 h 0.38618 c 0.3109,0 0.38643,0.0289 0.38739,0.14817 8.5e-4,0.0815 0.0575,0.91017 0.12633,1.8415 0.17822,2.41182 0.19373,2.24367 -0.207,2.24367 -0.32871,0 -0.33414,-0.005 -0.3793,-0.35984 z"
             transform="translate(1.6392376,-4.4381989)"
             id="path2628" /></g></g><path
         style="fill:#000000;stroke-width:0.0846667"
         d="m 88.813122,175.40985 c -3.644644,-0.79204 -6.379196,-3.58493 -7.068651,-7.21945 -0.1689,-0.89036 -0.173483,-3.45159 -0.0077,-4.31793 0.682435,-3.56677 3.271302,-6.27828 6.868794,-7.19423 l 0.757912,-0.19297 h 45.847003 45.847 l 0.84368,0.23729 c 3.60254,1.0132 6.10544,3.78272 6.70169,7.4156 0.18655,1.13668 0.11805,3.4883 -0.13058,4.4822 -0.83186,3.32539 -3.1902,5.73306 -6.58129,6.71893 l -0.66417,0.19309 -45.847,0.0169 c -44.301274,0.0164 -45.871263,0.0117 -46.566666,-0.13946 z"
         transform="translate(1.6392376,-4.4381989)"
         id="path2468" /><path
         style="fill:#141a24;stroke-width:0.0846667"
         d="m 145.28619,98.277088 v -1.439334 h 2.07433 2.07434 v 1.439334 1.439333 h -2.07434 -2.07433 z"
         transform="translate(1.6392376,-4.4381989)"
         id="path2738" /></g></g></svg>
