<?xml version="1.0" encoding="UTF-8" standalone="no"?>
<!-- Created with Inkscape (http://www.inkscape.org/) -->

<svg
   version="1.1"
   id="svg2"
   width="500"
   height="500"
   viewBox="0 0 500 500"
   sodipodi:docname="logo.svg"
   inkscape:version="1.2.2 (732a01da63, 2022-12-09)"
   xmlns:inkscape="http://www.inkscape.org/namespaces/inkscape"
   xmlns:sodipodi="http://sodipodi.sourceforge.net/DTD/sodipodi-0.dtd"
   xmlns="http://www.w3.org/2000/svg"
   xmlns:svg="http://www.w3.org/2000/svg">
  <defs
     id="defs6" />
  <sodipodi:namedview
     id="namedview4"
     pagecolor="#ffffff"
     bordercolor="#000000"
     borderopacity="0.25"
     inkscape:showpageshadow="2"
     inkscape:pageopacity="0.0"
     inkscape:pagecheckerboard="0"
     inkscape:deskcolor="#d1d1d1"
     showgrid="false"
     inkscape:zoom="1.888"
     inkscape:cx="104.34322"
     inkscape:cy="289.72458"
     inkscape:window-width="2560"
     inkscape:window-height="1494"
     inkscape:window-x="-11"
     inkscape:window-y="-11"
     inkscape:window-maximized="1"
     inkscape:current-layer="g8" />
  <g
     inkscape:groupmode="layer"
     inkscape:label="Image"
     id="g8">
    <g
       id="g2129"
       transform="translate(211.98222,23.220668)">
      <path
         style="fill:#0e9dd1"
         d="m -49.46945,403.22458 h -13.02029 l 0.27029,-20.75 0.27029,-20.75 12.25,-0.28078 12.25,-0.28078 v 4.53078 4.53078 h -7 -7 v 4 4 h 6 6 v 4 4 h -6 -6 v 4.5 4.5 h 7.5 7.5 v 4 4 z m 19.93992,0 h -5.91963 v -0.35393 -0.35392 l 4.5,-9.62974 4.5,-9.62973 v -1.33892 -1.33892 l -4.5,-9.24575 -4.5,-9.24574 v -0.47939 -0.47939 l 6.25,0.29771 6.25,0.29772 1.46917,4.25 1.46916,4.25 h 0.56167 0.56167 l 1.46916,-4.25 1.46917,-4.25 5.75,-0.2999 5.75,-0.29991 v 0.92363 0.92363 l -4,9.01159 -4,9.0116 v 1.13285 1.13285 l 5.00912,9.98183 5.00911,9.98183 h -6.42875 -6.42875 l -1.66073,-5 -1.66073,-5 h -0.83927 -0.83927 l -1.66073,5 -1.66073,5 z m 35.53468,0 H 0.55084 v -21.12325 -21.12326 l 12.0278,0.42884 12.02781,0.42883 2.22219,2.2222 2.2222,2.2222 v 9.4365 9.43651 l -1.78366,1.78572 -1.78366,1.78571 -6.71634,0.5 -6.71634,0.5 -0.29569,6.75 -0.29569,6.75 z m 8.54569,-22 h 3 v -5.5 -5.5 h -3 -3 v 5.5 5.5 z m 24.5,22 h -5.5 v -21 -21 l 9.25,0.006 9.25,0.006 3.73823,1.03818 3.73824,1.03818 1.01176,1.8905 1.01177,1.89051 v 8.64141 8.64141 l -2.40352,2.14087 -2.40353,2.14087 3.40353,6.7585 3.40352,6.75849 v 0.52497 0.52496 h -5.8601 -5.8601 l -3.56843,-7.75 -3.56844,-7.75 -0.0715,7.75 -0.07143,7.74915 z m 8.25,-22.18358 2.75,-0.31642 0.30226,-5.25 0.30226,-5.25 H 47.6031 44.55084 v 5.56642 5.56642 z m 31.75,22.18358 h -12.5 V 382.1938 361.16302 l 12.25,0.28078 12.25,0.28078 v 4 4 l -6.75,0.29569 -6.75,0.29569 v 3.95431 3.95431 h 6 6 v 4 4 h -6 -6 v 4.5 4.5 h 7 7 v 4 4 z m 30.29545,-0.0634 -8.29545,-0.0634 -2.26454,-0.90977 -2.26455,-0.90977 -0.98545,-2.59195 -0.98546,-2.59191 v -2.9349 -2.9349 h 6 6 v 2.56955 2.56955 l 2.25,-0.31955 2.25,-0.31955 v -4 -4 l -6.21422,-0.29679 -6.21423,-0.29679 -2.03577,-2.58807 -2.03578,-2.58807 v -6.73028 -6.73028 l 1.99862,-2.54083 1.99862,-2.54083 5.00138,-0.68787 5.00138,-0.68787 5.1088,0.70264 5.1088,0.70264 1.8912,1.8912 1.8912,1.8912 v 4 4 h -5.38337 -5.38337 l -0.52301,-2 -0.52301,-2 h -2.15112 -2.15112 l 0.3075,4.25 0.3075,4.25 6.33343,0.50386 6.33344,0.50386 1.41656,1.93727 1.41657,1.93727 v 7.35432 7.35433 l -2.45455,2.45454 -2.45454,2.45455 z m 31.84341,-0.0918 -9.54008,0.34484 -2.54939,-2.54939 -2.54939,-2.54939 v -4.04546 -4.04545 h 5.43045 5.43045 l 0.31955,2.25 0.31955,2.25 2.25,0.31955 2.25,0.31955 v -4.56955 -4.56955 h -6 -6 l -2,-2 -2,-2 v -8 -8 l 1.8912,-1.8912 1.8912,-1.8912 5.1088,-0.70264 5.1088,-0.70264 5.00138,0.68787 5.00138,0.68787 1.99862,2.54083 1.99862,2.54083 v 3.36514 3.36514 h -6 -6 v -2 -2 h -2.5 -2.5 v 3.89301 3.89301 l 1.58179,0.60699 1.58178,0.60699 h 4.72709 4.72708 l 1.92967,1.41101 1.92968,1.41101 0.35695,7.86027 0.35696,7.86027 -2.00604,2.47872 -2.00603,2.47872 z m -192.3421,-46.8448 h -5.05187 l -1.24489,-1.5 -1.24489,-1.5 h -3.72257 -3.72256 l -1.65499,-1.82874 -1.65499,-1.82874 v -11.51627 -11.51627 l 1.82874,-1.65499 1.82874,-1.65499 h 6.67126 6.67126 l 2,2 2,2 -0.0153,10.75 -0.0153,10.75 -0.93866,1.48454 -0.93865,1.48455 2.12828,2.26545 2.12829,2.26546 h -5.05187 z m -8.29676,-9 h 2 v -9 -9 h -2 -2 v 9 9 z m 165.79676,9 h -4.55187 l -1.24489,-1.5 -1.24489,-1.5 H 95.4284 91.55084 l -2,-2 -2,-2 v -11 -11 l 2,-2 2,-2 h 6.27749 6.2775 l 2.2225,1.5567 2.22251,1.55671 v 11.88428 11.88428 l -1.07521,0.66451 -1.0752,0.66451 2.24952,2.39451 2.24952,2.3945 z m -7.82814,-9 h 2.03138 v -9.06955 -9.06955 l -2.25,0.31955 -2.25,0.31955 -0.29697,7.40642 -0.29696,7.40641 0.51558,1.34359 0.51558,1.34358 z m -242.46862,6 h -3.5 v -15 -15 h 4.34586 4.34587 l 2.31188,7.75 2.31189,7.75 2.45176,-7.75 2.45177,-7.75 h 4.39048 4.39049 v 15 15 h -3.5 -3.5 l -0.10259,-8.75 -0.10259,-8.75 -1.76967,5.5 -1.76968,5.5 h -2.84223 -2.84223 l -1.72441,-5.5 -1.72441,-5.5 -0.0611,8.75 -0.0611,8.75 z m 28.67766,0 h -4.00958 l 3.43087,-13.25 3.43088,-13.25 0.55247,-1.75 0.55247,-1.75 h 4.89407 4.89407 l 0.98366,3.75 0.98365,3.75 2.55489,10.18122 2.55489,10.18122 v 1.06878 1.06878 h -4 -4 v -2 -2 h -3.88337 -3.88337 l -0.52301,2 -0.52301,2 z m 8.86765,-10 h 2.04532 l -0.67666,-3.75 -0.67665,-3.75 -0.57595,-0.98992 -0.57596,-0.98992 -0.69303,2.48992 -0.69302,2.48992 -0.0997,2.25 -0.0997,2.25 z m 17.95469,10 h -4 v -15 -15 h 8.30887 8.30887 l 1.84643,1.35014 1.84643,1.35014 0.47501,5.72797 0.47501,5.72797 -2.15248,2.91139 -2.15248,2.91138 2.53902,5.0105 2.53901,5.01051 h -4.31002 -4.31003 l -2.64597,-5.25 -2.64598,-5.25 -0.0608,5.25 -0.06089,5.25 z m 6,-16 h 2 v -4 -4 h -2 -2 v 4 4 z m 46.67126,16 h -6.67126 l -2,-2 -2,-2 v -13 -13 h 4.5 4.5 v 12 12 h 2 2 v -12 -12 h 4 4 v 13.34501 13.34501 l -1.82874,1.65499 -1.82874,1.65499 z m 15.5064,0 h -4.00958 l 3.43088,-13.25 3.43087,-13.25 0.55247,-1.75 0.55248,-1.75 h 4.89406 4.89407 l 0.98366,3.75 0.98365,3.75 2.55489,10.18122 2.55489,10.18122 v 1.06878 1.06878 h -4 -4 v -2 -2 h -3.88337 -3.88337 l -0.52301,2 -0.52301,2 z m 8.86765,-10 h 2.04532 l -0.67666,-3.75 -0.67665,-3.75 -0.57595,-0.98992 -0.57596,-0.98992 -0.69302,2.48992 -0.69303,2.48992 -0.0997,2.25 -0.09966,2.25 z m 23.87595,9.96959 -6.42126,-0.0304 -1.75,-1.01928 -1.75,-1.01928 v -12.91513 -12.91512 l 1.93426,-1.03519 1.93426,-1.03518 h 5.84323 5.84324 l 2.2225,1.5567 2.22251,1.55671 v 3.44329 3.4433 h -3.93045 -3.93045 l -0.31955,-2.25 -0.31955,-2.25 h -1.5 -1.5 v 9.5 9.5 h 1.5 1.5 l 0.33018,-2.33113 0.33018,-2.33112 -1.68892,-1.23497 -1.68892,-1.23497 0.36811,-1.93391 0.3681,-1.9339 5.24064,-0.30226 5.24063,-0.30226 v 6.89727 6.89727 l -1.82874,1.65499 -1.82874,1.65499 -6.42126,-0.0304 z m 21.57874,0.0304 h -9.5 v -15 -15 h 9 9 v 3 3 h -4.5 -4.5 v 3 3 h 4 4 v 3 3 h -4 -4 v 3 3 h 5 5 v 3 3 z m 24,0 h -4.5 v -15 -15 h 8.84501 8.84501 l 1.65499,1.82874 1.65499,1.82874 v 6.59983 6.59983 l -1.57143,1.57143 -1.57143,1.57143 h -4.42857 -4.42857 v 5 5 z m 6.5,-16 h 2 v -4 -4 h -2 -2 v 4 4 z m 16,16 h -4 v -15 -15 h 4 4 v 15 15 z m 40.96386,0 h -6.65388 l -1.65499,-1.82874 -1.65499,-1.82874 v -13.17126 -13.17126 h 4 4 v 12 12 h 2 2 v -12 -12 h 4.57748 4.57748 l -0.32748,13.58275 -0.32748,13.58275 -1.94113,1.41725 -1.94113,1.41725 z m 22.53614,0 h -9.5 v -15 -15 h 9 9 v 3 3 h -4.5 -4.5 v 3 3 h 4 4 v 3 3 h -4 -4 v 3 3 h 5 5 v 3 3 z m 19.5,0 h -4 v -12 -12 h -3 -3 v -3 -3 h 10 10 v 3 3 h -3 -3 v 12 12 z m 13.17766,0 h -4.00958 l 3.43088,-13.25 3.43087,-13.25 0.55247,-1.75 0.55248,-1.75 h 4.89406 4.89407 l 0.98366,3.75 0.98365,3.75 2.55489,10.18122 2.55489,10.18122 v 1.06878 1.06878 h -4 -4 v -2 -2 h -3.88337 -3.88337 l -0.52301,2 -0.52301,2 z m 8.86765,-10 h 2.04532 l -0.67666,-3.75 -0.67665,-3.75 -0.57595,-0.98992 -0.57596,-0.98992 -0.69302,2.48992 -0.69303,2.48992 -0.0997,2.25 -0.0997,2.25 z m 23.87595,9.96959 -6.42126,-0.0304 -1.75,-1.01928 -1.75,-1.01928 v -12.91513 -12.91512 l 1.93426,-1.03519 1.93426,-1.03518 h 5.84323 5.84324 l 2.2225,1.5567 2.22251,1.55671 v 3.44329 3.4433 h -3.93045 -3.93045 l -0.31955,-2.25 -0.31955,-2.25 h -1.5 -1.5 v 9.5 9.5 h 1.5 1.5 l 0.33018,-2.33113 0.33018,-2.33112 -1.68892,-1.23497 -1.68892,-1.23497 0.36811,-1.93391 0.3681,-1.9339 5.24064,-0.30226 5.24063,-0.30226 v 6.89727 6.89727 l -1.82874,1.65499 -1.82874,1.65499 -6.42126,-0.0304 z m 21.57874,0.0304 h -9.5 v -15 -15 h 9 9 v 3 3 h -4.5 -4.5 v 3 3 h 4 4 v 3 3 h -4 -4 v 3 3 h 5 5 v 3 3 z m -317.24459,-48.06339 -0.75541,-0.0634 -2.26454,-0.90977 -2.26455,-0.90977 -0.98545,-2.59195 -0.98546,-2.59192 0.0136,-99.1849 0.0137,-99.184903 0.58668,-2.18767 0.58667,-2.18766 38.2938,-28.562335 38.29379,-28.562335 h 0.95374 0.95374 l 53.7456,26.51279 53.7456,26.51279 21.15654,-15.69728 21.15654,-15.69728 14.40771,-10.81551 14.40771,-10.81551 h 1.88775 1.88774 l 2.45454,2.454545 2.45455,2.454546 V 153.72687 264.32008 l -2.39935,2.20225 -2.39934,2.20225 -36.92445,18.37523 -36.92446,18.37524 -54.28711,-18.07246 -54.28712,-18.07247 -35.88368,17.94723 -35.88368,17.94723 -0.7554,-0.0634 z m 172.49459,-17.01556 1.25,0.079 v -92.2549 -92.2549 l -47.5,-23.743723 -47.5,-23.743712 V 156.64263 257.05791 l 46.25,15.50439 46.25,15.50439 1.25,0.0789 z m -46.25,-49.92105 h -1.5 v -11.5 -11.5 h 1.5 1.5 v 11.5 11.5 z m -9,-8 h -1.5 v -11.5 -11.5 h 1.5 1.5 v 11.5 11.5 z m 18.71636,-0.23694 -1.28363,0.42603 0.28363,-11.26306 0.28364,-11.26307 1.28364,-0.42602 1.28363,-0.42603 -0.28363,11.26306 -0.28364,11.26307 z m -26.92948,-16.0235 -1.21312,0.40252 -0.58095,-2.32104 -0.58096,-2.32104 0.29408,-8.98875 0.29407,-8.98874 1.7835,-0.34103 1.78349,-0.34103 -0.28349,11.24829 -0.2835,11.2483 z m 35.10613,0.26044 h -1.39301 v -11.5 -11.5 h 1.39301 1.39301 l 0.60699,1.58179 0.60699,1.58178 v 8.33643 8.33643 l -0.60699,1.58178 -0.60699,1.58179 z m -17.93763,-5 h -1.44284 l -3.00922,-4.15412 -3.00923,-4.15412 -1.0852,-4.03011 -1.0852,-4.03012 0.50136,-2.56576 0.50135,-2.56577 -2.45575,-1.82879 -2.45576,-1.82878 -4.20745,2.16746 -4.20744,2.16747 -4.74965,3.97055 -4.74965,3.97055 -1.12499,-0.69527 -1.12498,-0.69528 0.48343,-6.75654 0.48343,-6.75654 2.33531,-4.85741 2.33531,-4.85742 5.07152,-5 5.07152,-5 -0.81572,-6 -0.81573,-6 0.38835,-10 0.38835,-10 2.30884,-5.9511 2.30884,-5.9511 6.14593,-6.2989 6.14592,-6.2989 h 1.68525 1.68524 l 5.39856,5.39856 5.39856,5.39856 2.59925,5.35144 2.59925,5.35144 1.21433,7.17332 1.21433,7.17332 -1.11414,10.74274 -1.11414,10.74275 2.52288,1.9845 2.52289,1.98451 2.43391,2.59943 2.43391,2.59943 2.60323,5.28871 2.60324,5.28871 0.49808,6.96129 0.49807,6.96129 H 72.04704 70.2745 l -4.3444,-4.00453 -4.3444,-4.00453 -4.38332,-2.12958 -4.38332,-2.12958 -2.22077,2.22077 -2.22077,2.22077 0.5753,2.29216 0.5753,2.29216 -1.40434,4.66627 -1.40434,4.66627 -2.63519,3.45491 -2.63519,3.45491 z m 0.7344,-5.61729 1.03685,-0.64081 1.93244,-4.3686 1.93244,-4.3686 -0.65705,-3.50235 -0.65704,-3.50235 H 39.9586 35.58894 l -0.63669,2.53679 -0.63669,2.53679 0.60947,3.04737 0.60947,3.04737 2.08464,2.9276 2.08463,2.9276 z m -26.67312,-16.82762 3.51667,-2.68229 4.34697,-1.92288 4.34697,-1.92287 -1.61364,-6.51027 -1.61363,-6.51026 -0.84879,-0.003 -0.84879,-0.003 -3.05238,3.25 -3.05239,3.25 -2.33906,5 -2.33905,5 -0.01,2.86869 -0.01,2.86869 3.51666,-2.68229 z m 55.31612,0.94414 0.33278,-1.59741 -1.83117,-5.09231 -1.83117,-5.0923 -3.8366,-4.35861 -3.83659,-4.3586 H 57.6376 56.89434 l -1.10159,4.75 -1.10158,4.75 -0.64628,1.66954 -0.64627,1.66953 4.32611,1.96851 4.32611,1.9685 3.5,2.66028 3.5,2.66028 z m -29.39771,-4.49923 h 8.48457 l 1.91869,-6.25 1.91868,-6.25 1.30062,-7.5 1.30062,-7.5 0.0709,-11 0.0709,-11 -0.79531,-3.75 -0.79532,-3.75 H 40.04412 26.62798 l -1.1617,4.25 -1.16169,4.25 0.59664,13 0.59663,13 1.94165,8.5 1.94166,8.5 1.06011,2.75 1.06011,2.75 h 8.48457 z m -0.13541,-28.06339 -1.79966,-0.0634 -2.143,-0.86481 -2.143,-0.86481 -1.607,-2.29431 -1.607,-2.29431 v -3.35442 -3.35442 l 2.92308,-2.92307 2.92307,-2.92308 h 2.52987 2.52987 l 2.62205,1.19469 2.62205,1.19468 1.42501,2.75566 1.425,2.75565 v 1.50261 1.5026 l -1.19469,2.62205 -1.19468,2.62205 -2.75566,1.42501 -2.75565,1.425 -1.79966,-0.0634 z m -0.057,-3.93661 h 2.09983 l 1.82874,-1.65499 1.82874,-1.65499 v -2.01627 -2.01627 l -1.65499,-1.82874 -1.65499,-1.82874 h -1.91075 -1.91075 l -1.93426,1.03518 -1.93426,1.03519 v 2.89339 2.89338 l 1.57143,1.57143 1.57143,1.57143 z m -0.29923,-29 h 11.05654 v -0.82186 -0.82186 l -2.75,-3.62445 -2.75,-3.62445 -2.70551,-2.09128 -2.70552,-2.09128 -3.79448,3.44448 -3.79449,3.44448 -1.80654,3.09311 -1.80653,3.09311 z m -89.44343,150.25567 29.5,-14.7399 v -99.3412 -99.34122 l -0.90432,0.333334 -0.90431,0.333333 -28.55389,21.5 -28.55389,21.500003 -0.0418,92.24779 -0.04179,92.24779 z m 180.5,0.24433 29,-14.50667 V 158.60256 58.987199 l -3.25,2.43682 -3.25,2.43682 -25.75,19.372878 -25.75,19.372883 v 92.31232 92.31233 z"
         id="path2133" />
      <path
         style="fill:#727272"
         d="m -49.46945,403.22458 h -13.02029 l 0.27029,-20.75 0.27029,-20.75 12.25,-0.28078 12.25,-0.28078 v 4.53078 4.53078 h -7 -7 v 4 4 h 6 6 v 4 4 h -6 -6 v 4.5 4.5 h 7.5 7.5 v 4 4 z m 19.93992,0 h -5.91963 v -0.35393 -0.35392 l 4.5,-9.62974 4.5,-9.62973 v -1.33892 -1.33892 l -4.5,-9.24575 -4.5,-9.24574 v -0.47939 -0.47939 l 6.25,0.29771 6.25,0.29772 1.46917,4.25 1.46916,4.25 h 0.56167 0.56167 l 1.46916,-4.25 1.46917,-4.25 5.75,-0.2999 5.75,-0.29991 v 0.92363 0.92363 l -4,9.01159 -4,9.0116 v 1.13285 1.13285 l 5.00912,9.98183 5.00911,9.98183 h -6.42875 -6.42875 l -1.66073,-5 -1.66073,-5 h -0.83927 -0.83927 l -1.66073,5 -1.66073,5 z m 35.53468,0 H 0.55084 v -21.12325 -21.12326 l 12.0278,0.42884 12.02781,0.42883 2.22219,2.2222 2.2222,2.2222 v 9.4365 9.43651 l -1.78366,1.78572 -1.78366,1.78571 -6.71634,0.5 -6.71634,0.5 -0.29569,6.75 -0.29569,6.75 z m 8.54569,-22 h 3 v -5.5 -5.5 h -3 -3 v 5.5 5.5 z m 24.5,22 h -5.5 v -21 -21 l 9.25,0.006 9.25,0.006 3.73823,1.03818 3.73824,1.03818 1.01176,1.8905 1.01177,1.89051 v 8.64141 8.64141 l -2.40352,2.14087 -2.40353,2.14087 3.40353,6.7585 3.40352,6.75849 v 0.52497 0.52496 h -5.8601 -5.8601 l -3.56843,-7.75 -3.56844,-7.75 -0.0715,7.75 -0.07143,7.74915 z m 8.25,-22.18358 2.75,-0.31642 0.30226,-5.25 0.30226,-5.25 H 47.6031 44.55084 v 5.56642 5.56642 z m 31.75,22.18358 h -12.5 V 382.1938 361.16302 l 12.25,0.28078 12.25,0.28078 v 4 4 l -6.75,0.29569 -6.75,0.29569 v 3.95431 3.95431 h 6 6 v 4 4 h -6 -6 v 4.5 4.5 h 7 7 v 4 4 z m 30.29545,-0.0634 -8.29545,-0.0634 -2.26454,-0.90977 -2.26455,-0.90977 -0.98545,-2.59195 -0.98546,-2.59191 v -2.9349 -2.9349 h 6 6 v 2.56955 2.56955 l 2.25,-0.31955 2.25,-0.31955 v -4 -4 l -6.21422,-0.29679 -6.21423,-0.29679 -2.03577,-2.58807 -2.03578,-2.58807 v -6.73028 -6.73028 l 1.99862,-2.54083 1.99862,-2.54083 5.00138,-0.68787 5.00138,-0.68787 5.1088,0.70264 5.1088,0.70264 1.8912,1.8912 1.8912,1.8912 v 4 4 h -5.38337 -5.38337 l -0.52301,-2 -0.52301,-2 h -2.15112 -2.15112 l 0.3075,4.25 0.3075,4.25 6.33343,0.50386 6.33344,0.50386 1.41656,1.93727 1.41657,1.93727 v 7.35432 7.35433 l -2.45455,2.45454 -2.45454,2.45455 z m 31.84341,-0.0918 -9.54008,0.34484 -2.54939,-2.54939 -2.54939,-2.54939 v -4.04546 -4.04545 h 5.43045 5.43045 l 0.31955,2.25 0.31955,2.25 2.25,0.31955 2.25,0.31955 v -4.56955 -4.56955 h -6 -6 l -2,-2 -2,-2 v -8 -8 l 1.8912,-1.8912 1.8912,-1.8912 5.1088,-0.70264 5.1088,-0.70264 5.00138,0.68787 5.00138,0.68787 1.99862,2.54083 1.99862,2.54083 v 3.36514 3.36514 h -6 -6 v -2 -2 h -2.5 -2.5 v 3.89301 3.89301 l 1.58179,0.60699 1.58178,0.60699 h 4.72709 4.72708 l 1.92967,1.41101 1.92968,1.41101 0.35695,7.86027 0.35696,7.86027 -2.00604,2.47872 -2.00603,2.47872 z m -227.38345,-97.90824 -0.75541,-0.0634 -2.26454,-0.90977 -2.26455,-0.90977 -0.98545,-2.59195 -0.98546,-2.59187 0.0136,-99.1849 0.0137,-99.184903 0.58668,-2.18767 0.58667,-2.18766 38.2938,-28.562335 38.29379,-28.562335 h 0.95374 0.95374 l 53.7456,26.51279 53.7456,26.51279 21.15654,-15.69728 21.15654,-15.69728 14.40771,-10.81551 14.40771,-10.81551 h 1.88775 1.88774 l 2.45454,2.454545 2.45455,2.454546 V 153.72687 264.32008 l -2.39935,2.20225 -2.39934,2.20225 -36.92445,18.37523 -36.92446,18.37524 -54.28711,-18.07246 -54.28712,-18.07247 -35.88368,17.94723 -35.88368,17.94723 -0.7554,-0.0634 z m 172.49459,-17.01551 1.25,0.079 v -92.2549 -92.2549 l -47.5,-23.743723 -47.5,-23.743712 V 156.64263 257.05791 l 46.25,15.50439 46.25,15.50439 1.25,0.0789 z m -136.25,-15.66538 29.5,-14.7399 V 158.39913 59.05791 l -0.90432,0.333334 -0.90431,0.333333 -28.55389,21.5 -28.55389,21.500003 -0.0418,92.24779 -0.04179,92.24779 z m 180.5,0.24433 29,-14.50667 V 158.60256 58.987199 l -3.25,2.43682 -3.25,2.43682 -25.75,19.372878 -25.75,19.372883 v 92.31232 92.31233 z"
         id="path2131" />
    </g>
  </g>
</svg>
