<?xml version="1.0" encoding="utf-8"?>
<!-- Uploaded to: SVG Repo, www.svgrepo.com, Generator: SVG Repo Mixer Tools -->
<svg fill="#000000" width="800px" height="800px" viewBox="0 0 32 32" version="1.1" xmlns="http://www.w3.org/2000/svg">
<title>map</title>
<path d="M30.336 1.329c-0.098-0.050-0.213-0.080-0.335-0.080-0.17 0-0.326 0.057-0.452 0.152l0.002-0.001-7.631 5.723-11.585-5.794c-0.098-0.050-0.213-0.079-0.335-0.079-0.17 0-0.326 0.057-0.452 0.152l0.002-0.001-8 6c-0.183 0.138-0.3 0.355-0.3 0.6v0 22c0 0.001 0 0.001 0 0.002 0 0.413 0.335 0.748 0.748 0.748 0.001 0 0.001 0 0.002 0h-0c0.001 0 0.002 0 0.004 0 0.121 0 0.235-0.030 0.335-0.082l-0.004 0.002 7.722-3.861 11.707 3.902c0.071 0.025 0.152 0.039 0.237 0.039 0.122 0 0.238-0.030 0.339-0.082l-0.004 0.002 8-4c0.247-0.126 0.414-0.378 0.414-0.67v0-24c0-0 0-0 0-0.001 0-0.292-0.167-0.544-0.41-0.668l-0.004-0.002zM9.25 25.537l-6.5 3.25v-20.412l6.5-4.875zM10.75 3.214l10.5 5.251v20.494l-10.5-3.499zM29.25 25.537l-6.5 3.249v-20.411l6.5-4.875z"></path>
</svg>