<?xml version="1.0" encoding="UTF-8" standalone="no"?>
<!-- Created with Inkscape (http://www.inkscape.org/) -->

<svg
   version="1.1"
   id="svg182"
   width="5333.3335"
   height="5333.3335"
   viewBox="0 0 5333.3335 5333.3335"
   sodipodi:docname="rocket.svg"
   inkscape:version="1.2.2 (732a01da63, 2022-12-09)"
   xmlns:inkscape="http://www.inkscape.org/namespaces/inkscape"
   xmlns:sodipodi="http://sodipodi.sourceforge.net/DTD/sodipodi-0.dtd"
   xmlns="http://www.w3.org/2000/svg"
   xmlns:svg="http://www.w3.org/2000/svg">
  <defs
     id="defs186" />
  <sodipodi:namedview
     id="namedview184"
     pagecolor="#ffffff"
     bordercolor="#000000"
     borderopacity="0.25"
     inkscape:showpageshadow="2"
     inkscape:pageopacity="0.0"
     inkscape:pagecheckerboard="0"
     inkscape:deskcolor="#d1d1d1"
     showgrid="false"
     inkscape:zoom="0.16175067"
     inkscape:cx="3153.0008"
     inkscape:cy="2602.7713"
     inkscape:window-width="2560"
     inkscape:window-height="1494"
     inkscape:window-x="-11"
     inkscape:window-y="-11"
     inkscape:window-maximized="1"
     inkscape:current-layer="g192">
    <inkscape:page
       x="0"
       y="0"
       id="page188"
       width="5333.3333"
       height="5333.3333" />
  </sodipodi:namedview>
  <g
     id="g190"
     inkscape:groupmode="layer"
     inkscape:label="Page 1"
     transform="matrix(1.3333333,0,0,-1.3333333,0,5333.3333)">
    <g
       id="g192"
       transform="scale(0.1)">
      <path
         d="m 17005.656,6595.8291 c -90.51,90.5097 -146.442,215.4555 -146.442,353.4827 l 0,5794.1742 c -0.07,276.125 223.799,499.995 499.995,499.995 276.055,0 499.925,-223.87 499.995,-499.995 l 0,-5794.1742 c -0.07,-276.1252 -223.87,-499.9245 -499.995,-499.9952 -138.098,0.071 -263.043,56.0029 -353.553,146.5125"
         style="fill:#2e2d2d;fill-opacity:1;fill-rule:nonzero;stroke:none"
         id="path196" />
      <path
         d="m 19646.558,4155.8865 c -90.439,90.4389 -146.442,215.4554 -146.442,353.4827 v 5794.1748 c -0.07,276.125 223.8,499.995 499.996,499.995 276.125,-0.07 499.924,-223.87 499.995,-499.995 V 4509.3692 c 0,-276.0545 -223.87,-499.9245 -499.995,-499.9953 -138.098,0.071 -263.044,56.0029 -353.554,146.5126"
         style="fill:#2e2d2d;fill-opacity:1;fill-rule:nonzero;stroke:none"
         id="path198" />
      <path
         d="m 22287.461,6595.8291 c -90.439,90.439 -146.442,215.4555 -146.442,353.4827 v 5794.1742 c 0,276.196 223.87,500.066 499.995,499.995 276.196,0 500.066,-223.87 499.995,-499.995 l 0,-5794.1742 c 0.07,-276.1252 -223.799,-499.9952 -499.995,-499.9952 -138.027,0 -263.044,56.0029 -353.553,146.5125"
         style="fill:#2e2d2d;fill-opacity:1;fill-rule:nonzero;stroke:none"
         id="path200" />
      <path
         d="m 21653.893,16496.031 c -0.07,-1354.746 -1101.743,-2565.313 -1653.781,-3086.804 -552.392,521.986 -1653.782,1732.27 -1653.782,3086.804 0,552.816 73.257,1021.345 218.143,1397.597 h 2871.278 c 144.815,-376.322 218.142,-844.781 218.142,-1397.597 z m -7993.913,3995.507 c 0,1257.519 520.714,2417.74 1425.457,3239.893 65.478,-894.349 183.706,-1762.676 353.341,-2591.335 198.343,-969.089 461.811,-1859.761 784.252,-2652.994 l -1110.44,-1257.094 c -916.694,827.598 -1452.539,2016.527 -1452.61,3261.53 z m 3556.889,10896.233 c 304.338,-231.507 635.83,-423.557 990.798,-573.747 567.948,-240.275 1171.039,-362.109 1792.445,-362.109 631.305,0 1243.235,125.582 1818.82,373.352 345.351,148.634 667.933,336.866 964.493,562.433 791.111,-1688.854 1191.829,-3700.078 1191.829,-5989.689 0,-214.819 -3.394,-433.457 -9.688,-650.751 -3.959,-31.254 -4.879,-62.72 -2.828,-93.904 -72.266,-2144.372 -460.609,-4172.778 -1099.834,-5759.809 l -1106.127,0.07 c -1.697,0 -3.394,0 -5.091,0 H 18248.82 c -1.838,0 -3.818,0 -5.657,0 h -1105.915 c -639.366,1587.455 -1027.709,3616.286 -1099.763,5761.86 2.122,31.82 1.132,63.922 -2.97,95.883 -6.364,211.85 -9.616,429.073 -9.546,646.65 0,2289.611 400.647,4300.906 1191.9,5989.76 z m 2783.137,3429.22 c 219.245,-145.282 577.246,-409.804 987.51,-820.067 27.93,-27.931 55.649,-56.215 83.297,-84.711 4.596,-4.738 9.263,-9.546 13.859,-14.284 26.375,-27.365 52.609,-54.871 78.56,-82.661 5.161,-5.444 10.182,-10.889 15.273,-16.263 26.446,-28.284 52.75,-56.852 78.843,-85.631 2.828,-3.111 5.656,-6.222 8.414,-9.263 25.173,-27.86 50.205,-56.003 75.095,-84.287 3.465,-3.889 6.929,-7.778 10.324,-11.738 25.526,-29.062 50.77,-58.407 76.014,-88.035 5.02,-5.869 10.04,-11.738 15.061,-17.748 24.961,-29.345 49.71,-59.044 74.317,-88.884 4.101,-4.949 8.132,-9.97 12.304,-14.99 24.607,-29.981 49.073,-60.246 73.468,-90.722 1.343,-1.768 2.687,-3.394 4.101,-5.091 24.89,-31.254 49.568,-62.862 74.105,-94.611 4.596,-5.869 9.192,-11.738 13.647,-17.607 23.688,-30.759 47.235,-61.801 70.569,-92.914 4.667,-6.222 9.263,-12.374 13.93,-18.597 23.901,-32.102 47.659,-64.346 71.135,-96.873 2.051,-2.758 3.96,-5.516 6.011,-8.274 22.698,-31.466 45.255,-63.073 67.67,-94.964 3.606,-5.162 7.212,-10.182 10.819,-15.344 22.698,-32.456 45.184,-65.125 67.528,-97.934 4.667,-6.789 9.193,-13.577 13.789,-20.294 22.344,-32.952 44.548,-66.186 66.539,-99.632 3.323,-5.02 6.576,-10.111 9.899,-15.132 21.638,-32.951 43.063,-66.114 64.417,-99.49 1.91,-3.04 3.89,-6.01 5.728,-8.98 22.062,-34.648 43.77,-69.509 65.478,-104.51 4.101,-6.647 8.132,-13.223 12.162,-19.799 21.214,-34.366 42.215,-68.943 62.933,-103.804 1.485,-2.333 2.899,-4.879 4.384,-7.354 -646.154,-540.653 -1452.61,-834.598 -2307.077,-834.598 -852.771,0 -1660.358,294.227 -2306.894,834.556 9.9,16.546 19.785,32.965 29.713,49.342 6.548,10.847 13.11,21.821 19.707,32.619 15.563,25.449 31.162,50.579 46.761,75.568 3.521,5.671 7.05,11.477 10.599,17.119 19.121,30.519 38.297,60.698 57.502,90.567 5.537,8.605 11.102,17.041 16.596,25.547 13.676,21.115 27.365,42.215 41.076,63.011 7.425,11.243 14.8,22.252 22.196,33.382 11.865,17.833 23.738,35.659 35.596,53.217 8.04,11.901 16.072,23.667 24.098,35.44 11.229,16.49 22.486,32.951 33.764,49.25 8.266,11.957 16.575,23.872 24.827,35.702 11.108,15.903 22.196,31.685 33.276,47.334 8.323,11.759 16.596,23.426 24.912,35.051 11.087,15.5 22.16,30.872 33.205,46.132 8.259,11.398 16.518,22.797 24.693,33.997 11.363,15.507 22.599,30.717 33.912,45.991 7.885,10.641 15.804,21.39 23.731,31.989 11.978,16.023 23.999,31.862 35.949,47.631 7.135,9.411 14.291,18.943 21.468,28.312 15.005,19.644 30.003,39.011 44.972,58.266 4.023,5.169 8.061,10.465 12.092,15.627 18.794,24.056 37.596,47.822 56.299,71.262 6.52,8.188 13.061,16.214 19.615,24.367 12.29,15.288 24.643,30.653 36.904,45.686 7.743,9.511 15.486,18.88 23.271,28.348 10.975,13.35 22.02,26.771 32.937,39.895 8.16,9.801 16.235,19.403 24.367,29.091 10.522,12.529 21.058,25.045 31.509,37.363 8.259,9.702 16.398,19.24 24.621,28.836 10.317,12.028 20.655,24.034 30.901,35.85 8.209,9.468 16.292,18.781 24.48,28.129 10.288,11.773 20.556,23.426 30.773,34.988 7.969,9.001 15.861,17.939 23.794,26.834 10.466,11.738 20.924,23.342 31.318,34.868 7.58,8.4 15.139,16.822 22.684,25.116 11.116,12.219 22.161,24.226 33.206,36.232 6.647,7.213 13.392,14.609 19.99,21.73 14.495,15.627 28.864,30.957 43.197,46.181 3.09,3.274 6.279,6.731 9.376,9.998 17.246,18.251 34.309,36.119 51.308,53.769 6.166,6.42 12.183,12.565 18.243,18.809 10.996,11.349 22.069,22.761 32.916,33.835 6.93,7.071 13.838,14.022 20.732,20.987 9.914,10.026 19.898,20.124 29.649,29.889 7.206,7.22 14.312,14.255 21.404,21.305 9.44,9.369 18.817,18.661 28.157,27.846 7.135,7.008 14.213,13.93 21.306,20.839 9.227,9.015 18.42,17.925 27.485,26.679 6.979,6.738 13.894,13.399 20.831,20.039 9.101,8.719 18.222,17.416 27.231,25.944 6.675,6.335 13.279,12.6 19.912,18.837 9.249,8.712 18.47,17.31 27.627,25.831 6.144,5.734 12.282,11.476 18.384,17.112 10.063,9.312 19.955,18.37 29.855,27.421 4.956,4.519 10.026,9.207 14.912,13.655 14.744,13.399 29.395,26.608 43.728,39.428 280.354,250.542 520.091,424.462 683.221,532.437 z m 6340.237,-14327.857 c -0.07,-1245.003 -535.987,-2433.862 -1452.68,-3261.459 l -1111.148,1257.801 c 322.653,793.303 586.263,1684.258 784.818,2653.56 169.564,828.305 287.863,1696.137 353.412,2590.132 904.743,-822.153 1425.598,-1982.515 1425.598,-3240.034 z m -1476.368,-4450.459 c 5.727,0.353 11.526,0.777 17.395,1.414 1.838,0.141 3.677,0.424 5.586,0.636 5.586,0.637 11.243,1.344 16.758,2.192 2.122,0.283 4.172,0.637 6.223,0.99 5.374,0.849 10.748,1.839 16.122,2.829 2.263,0.424 4.525,0.848 6.788,1.414 5.091,0.99 10.112,2.192 15.132,3.394 2.546,0.566 5.091,1.273 7.708,1.909 4.596,1.202 9.263,2.475 13.859,3.818 2.899,0.778 5.798,1.697 8.697,2.617 4.172,1.202 8.274,2.616 12.445,3.96 3.253,1.131 6.577,2.333 9.829,3.464 3.606,1.344 7.283,2.758 10.89,4.102 3.747,1.484 7.424,2.899 11.101,4.454 3.112,1.273 6.081,2.687 9.122,4.031 4.172,1.768 8.273,3.606 12.374,5.586 2.546,1.131 4.95,2.404 7.354,3.536 4.596,2.333 9.122,4.596 13.647,7 1.98,0.99 3.819,2.121 5.728,3.182 4.95,2.687 9.829,5.445 14.708,8.344 1.555,0.848 2.97,1.838 4.455,2.757 5.161,3.041 10.253,6.294 15.414,9.617 1.344,0.919 2.758,1.909 4.102,2.829 5.02,3.464 10.111,6.858 14.99,10.465 0.142,0.141 0.354,0.212 0.495,0.353 671.469,489.884 1228.457,1137.806 1610.931,1873.55 195.161,375.615 345.634,774.141 447.104,1184.475 104.439,422.355 157.402,858.852 157.402,1297.541 0,947.947 -249.751,1880.338 -722.31,2696.41 -408.071,704.915 -973.969,1310.835 -1647.135,1767.201 2.829,149.059 4.455,298.046 4.455,445.266 0,2567.504 -479.701,4819.922 -1426.305,6702.311 l 4.526,4.667 -176.565,324.209 c -308.793,566.746 -658.741,1091.207 -1045.316,1567.302 -202.445,249.396 -415.001,485.57 -636.962,707.531 -798.295,798.295 -1441.168,1129.193 -1468.151,1142.882 l -226.324,115.025 -226.416,-114.975 c -12.473,-6.336 -73.779,-38.085 -173.601,-98.917 -9.051,-5.516 -18.435,-11.265 -28.129,-17.268 -53.415,-33.135 -116.128,-73.518 -186.98,-121.742 -25.824,-17.593 -52.651,-36.162 -80.455,-55.735 -27.867,-19.65 -56.774,-40.382 -86.543,-62.091 -14.948,-10.932 -30.094,-22.09 -45.431,-33.481 -23.045,-17.119 -46.676,-34.924 -70.739,-53.288 -24.056,-18.37 -48.621,-37.363 -73.66,-57.014 -8.322,-6.526 -16.709,-13.131 -25.158,-19.813 -25.336,-20.06 -51.089,-40.694 -77.287,-62.013 -17.544,-14.277 -35.179,-28.744 -53.033,-43.558 -169.6,-140.537 -355.703,-307.139 -551.777,-502.237 -536.609,-533.95 -1147.691,-1281.221 -1697.601,-2290.623 l -176.592,-324.18 4.546,-4.688 c -946.653,-1882.339 -1426.312,-4134.8 -1426.312,-6702.304 -0.07,-148.281 1.485,-296.49 4.243,-443.074 -673.095,-456.296 -1238.922,-1062.145 -1646.993,-1766.918 -472.489,-816.143 -722.239,-1748.534 -722.239,-2696.481 0,-438.689 52.891,-875.257 157.331,-1297.47 101.54,-410.405 251.942,-808.86 447.174,-1184.545 254.276,-489.177 585.626,-939.463 976.444,-1330.28 197.212,-197.071 409.344,-379.08 634.487,-543.271 0.354,-0.353 0.778,-0.636 1.202,-0.919 5.374,-3.818 10.819,-7.566 16.263,-11.172 1.415,-0.99 2.9,-2.051 4.385,-2.97 6.01,-4.03 12.091,-7.707 18.314,-11.384 0.99,-0.566 2.05,-1.344 3.04,-1.91 6.223,-3.535 12.445,-6.929 18.739,-10.253 1.202,-0.636 2.262,-1.272 3.464,-1.909 5.799,-2.97 11.668,-5.869 17.607,-8.556 1.697,-0.848 3.394,-1.697 5.021,-2.475 5.162,-2.333 10.394,-4.454 15.556,-6.646 2.546,-0.99 5.091,-2.122 7.495,-3.112 4.243,-1.697 8.556,-3.182 12.799,-4.737 3.536,-1.273 7.142,-2.617 10.677,-3.889 3.112,-0.99 6.294,-1.91 9.405,-2.9 4.738,-1.485 9.475,-3.111 14.283,-4.384 1.839,-0.565 3.819,-0.99 5.657,-1.555 6.081,-1.556 12.092,-3.182 18.173,-4.596 0.707,-0.142 1.414,-0.283 2.192,-0.495 38.679,-8.698 77.994,-12.799 117.238,-12.163 0.849,0 1.697,0 2.475,0.07 7.142,0.07 14.213,0.354 21.284,0.778 2.546,0.141 5.162,0.495 7.778,0.707 5.304,0.353 10.536,0.778 15.769,1.343 4.737,0.495 9.404,1.203 14.142,1.839 3.111,0.424 6.222,0.707 9.334,1.273 6.646,0.99 13.293,2.262 19.94,3.535 1.131,0.283 2.263,0.425 3.465,0.637 38.113,7.849 75.519,20.223 111.228,36.981 0.848,0.425 1.768,0.778 2.616,1.202 5.374,2.546 10.819,5.304 16.122,8.061 1.909,1.061 3.96,1.98 5.869,3.041 4.243,2.263 8.344,4.667 12.445,7.071 3.041,1.768 6.081,3.394 9.122,5.162 3.04,1.909 6.01,3.889 9.051,5.798 4.03,2.475 7.99,5.021 11.879,7.637 2.122,1.414 4.243,2.97 6.293,4.455 4.809,3.252 9.546,6.576 14.213,10.111 1.344,1.061 2.687,2.122 4.031,3.182 5.303,4.031 10.536,8.132 15.698,12.445 0.919,0.778 1.767,1.485 2.687,2.263 5.515,4.667 10.96,9.405 16.334,14.354 0.778,0.778 1.555,1.556 2.333,2.192 5.304,5.021 10.536,10.112 15.769,15.345 1.06,1.202 2.121,2.404 3.252,3.535 4.738,4.879 9.334,9.758 13.789,14.779 0.354,0.353 0.707,0.707 0.99,1.131 l 1488.248,1684.682 481.61,0.07 c -111.864,-412.385 -168.362,-879.57 -168.362,-1397.597 0,-1601.031 1099.48,-2953.373 1794.213,-3647.964 299.106,-299.106 523.188,-476.378 552.038,-498.864 l 307.45,-239.85 307.591,239.85 c 95.813,74.742 2346.251,1856.509 2346.251,4146.828 0,518.027 -56.568,985.283 -168.362,1397.597 l 479.489,-0.07 1490.369,-1687.086 c 0.425,-0.566 0.849,-0.99 1.344,-1.485 6.576,-7.425 13.223,-14.637 20.152,-21.567 11.456,-11.455 23.406,-22.132 35.709,-32.315 0.637,-0.494 1.273,-0.989 1.909,-1.484 5.304,-4.314 10.678,-8.556 16.193,-12.658 1.627,-1.202 3.324,-2.475 5.021,-3.606 4.454,-3.323 8.909,-6.505 13.435,-9.617 2.404,-1.555 4.808,-3.111 7.212,-4.666 3.819,-2.546 7.778,-5.092 11.667,-7.425 2.97,-1.839 5.869,-3.606 8.91,-5.374 3.394,-1.98 6.859,-4.031 10.324,-5.94 3.394,-1.838 6.788,-3.677 10.253,-5.445 3.111,-1.697 6.222,-3.252 9.404,-4.879 3.677,-1.838 7.496,-3.676 11.243,-5.444 2.899,-1.344 5.799,-2.687 8.768,-3.96 4.031,-1.768 8.061,-3.536 12.163,-5.233 2.687,-1.131 5.444,-2.192 8.202,-3.252 4.243,-1.697 8.556,-3.324 12.799,-4.879 2.616,-0.92 5.232,-1.839 7.919,-2.687 4.384,-1.556 8.839,-3.041 13.294,-4.384 2.616,-0.92 5.303,-1.627 7.92,-2.405 4.525,-1.272 8.98,-2.616 13.505,-3.747 2.687,-0.707 5.445,-1.344 8.273,-2.051 4.385,-1.131 8.839,-2.192 13.223,-3.182 3.182,-0.636 6.364,-1.273 9.476,-1.838 4.172,-0.778 8.202,-1.697 12.303,-2.405 6.435,-1.06 13.011,-1.979 19.516,-2.828 0.99,-0.141 1.91,-0.353 2.829,-0.424 7.354,-0.849 14.708,-1.697 22.062,-2.263 1.343,-0.07 2.687,-0.141 4.03,-0.212 6.223,-0.424 12.445,-0.849 18.668,-0.99 1.555,-0.141 3.04,-0.07 4.667,-0.141 5.939,-0.142 12.02,-0.283 18.102,-0.142 1.626,-0.07 3.323,0.07 4.949,0.142 5.869,0.07 11.88,0.282 17.749,0.636 1.767,0.07 3.464,0.212 5.303,0.354"
         style="fill:#2e2d2d;fill-opacity:1;fill-rule:nonzero;stroke:none"
         id="path202" />
      <path
         d="m 20696.117,27593.436 c -185.899,185.898 -433.103,288.287 -696.005,288.287 -542.705,-0.07 -984.222,-441.588 -984.293,-984.292 0,-262.903 102.389,-510.107 288.287,-696.006 185.899,-185.898 433.103,-288.287 696.006,-288.287 542.775,0 984.292,441.517 984.292,984.293 0,262.902 -102.389,510.106 -288.287,696.005 z M 18597,25494.319 c -374.767,374.766 -581.171,873.064 -581.171,1403.112 0.07,1094.106 890.176,1984.212 1984.283,1984.283 530.047,0 1028.345,-206.405 1403.112,-581.172 374.766,-374.766 581.171,-873.064 581.171,-1403.111 0,-1094.178 -890.106,-1984.284 -1984.283,-1984.284 -530.048,0 -1028.346,206.405 -1403.112,581.172"
         style="fill:#2e2d2d;fill-opacity:1;fill-rule:nonzero;stroke:none"
         id="path204" />
    </g>
  </g>
</svg>
